# Blender v3.0.0 OBJ File: 'pacman_hsiu.blend'
# www.blender.org
o pacman_head
v -0.850649 1.447220 0.276388
v -0.525725 1.447219 -0.723607
v 0.525725 1.447219 -0.723607
v 0.850649 1.447220 0.276388
v 0.000000 1.447216 0.894426
v 0.000000 2.000000 0.000000
v -0.147618 1.251149 0.956626
v -0.309013 1.000000 0.951058
v 0.309013 1.000000 0.951058
v 0.147618 1.251149 0.956626
v -0.955422 1.251152 0.155215
v -1.000000 1.000000 0.000000
v -0.809017 1.000000 0.587786
v -0.864188 1.251152 0.436007
v -0.442858 1.251151 -0.860698
v -0.309013 1.000000 -0.951058
v -0.809017 1.000000 -0.587786
v -0.681715 1.251152 -0.687159
v 0.681715 1.251152 -0.687159
v 0.809017 1.000000 -0.587786
v 0.309013 1.000000 -0.951058
v 0.442858 1.251151 -0.860698
v 0.864188 1.251152 0.436007
v 0.809017 1.000000 0.587786
v 1.000000 1.000000 0.000000
v 0.955422 1.251152 0.155215
v -0.253861 1.523180 0.861909
v -0.499997 1.525736 0.688189
v -0.739938 1.526120 0.506025
v -0.864184 1.502302 0.029639
v -0.809012 1.525738 -0.262869
v -0.681712 1.502302 -0.531941
v -0.295238 1.502301 -0.812729
v 0.000000 1.525736 -0.850648
v 0.295238 1.502301 -0.812729
v 0.681712 1.502302 -0.531941
v 0.809012 1.525738 -0.262869
v 0.864184 1.502302 0.029639
v 0.739938 1.526120 0.506025
v 0.523392 1.545499 0.715165
v 0.253861 1.523180 0.861909
v -0.238853 1.967950 0.077607
v -0.499995 1.850654 0.162456
v -0.716563 1.657519 0.232822
v 0.000000 1.657515 0.753442
v 0.000000 1.850652 0.525730
v 0.000000 1.967949 0.251147
v -0.147618 1.967950 -0.203181
v -0.309011 1.850654 -0.425323
v -0.442856 1.657519 -0.609547
v 0.147618 1.967950 -0.203181
v 0.309011 1.850654 -0.425323
v 0.442856 1.657519 -0.609547
v 0.238853 1.967950 0.077607
v 0.499995 1.850654 0.162456
v 0.716563 1.657519 0.232822
v 0.262863 1.894429 0.361800
v 0.278559 1.749165 0.664894
v 0.546271 1.749167 0.470387
v 0.425319 1.894430 -0.138197
v 0.688185 1.723612 -0.052790
v 0.587778 1.723612 -0.361804
v 0.000000 1.894429 -0.447210
v 0.162457 1.723611 -0.670817
v -0.162457 1.723611 -0.670817
v -0.425319 1.894430 -0.138197
v -0.587778 1.723612 -0.361804
v -0.688185 1.723612 -0.052790
v -0.262863 1.894429 0.361800
v -0.546271 1.749167 0.470387
v -0.278559 1.749165 0.664894
v 0.425322 1.276396 0.861804
v 0.587782 1.000000 0.809019
v 0.710114 1.290843 0.700997
v 0.951055 1.276397 -0.138199
v 0.951057 1.000000 -0.309016
v 0.850649 1.276397 -0.447215
v 0.162458 1.276396 -0.947213
v -0.000000 1.000001 -1.000000
v -0.162458 1.276397 -0.947213
v -0.850648 1.276397 -0.447216
v -0.951056 0.999999 -0.309017
v -0.951055 1.276397 -0.138199
v -0.710114 1.290842 0.700997
v -0.587783 0.999998 0.809019
v -0.444437 1.292538 0.893210
v 0.951056 1.000000 0.309017
v 0.587783 1.000000 -0.809018
v -0.587783 1.000000 -0.809018
v -0.951056 1.000000 0.309017
v 0.000000 1.000000 1.000000
v -0.523392 1.545499 0.715165
v -0.716565 1.502302 0.483971
v 0.716565 1.502302 0.483971
v 0.499997 1.525736 0.688189
v 0.262864 1.723610 0.638194
v 0.525728 1.723612 0.447209
v 0.238853 1.502299 0.831051
v -0.525728 1.723612 0.447209
v -0.262864 1.723610 0.638194
v -0.238853 1.502299 0.831051
v 0.444436 1.292540 0.893210
v 0.688189 1.276397 0.670821
v -0.688190 1.276396 0.670820
v -0.425323 1.276394 0.861804
v -0.002152 1.000000 0.006624
v 0.002152 1.000000 0.006624
v -0.006965 1.000000 0.000000
v -0.005635 1.000000 0.004094
v -0.002152 1.000000 -0.006624
v -0.005635 1.000000 -0.004094
v 0.005635 1.000000 -0.004094
v 0.002152 1.000000 -0.006624
v 0.005635 1.000000 0.004094
v 0.006965 1.000000 0.000000
v 0.004094 1.000000 0.005635
v 0.006624 1.000000 -0.002152
v -0.000000 1.000000 -0.006965
v -0.006624 1.000000 -0.002152
v -0.004094 1.000000 0.005635
v 0.006624 1.000000 0.002152
v 0.004094 1.000000 -0.005635
v -0.004094 1.000000 -0.005635
v -0.006624 1.000000 0.002152
v -0.000000 1.000000 0.006965
vt 0.798542 0.274699
vt 0.726347 0.222247
vt 0.734654 0.210813
vt 0.773665 0.287375
vt 0.721979 0.249823
vt 0.721979 0.235689
vt 0.759531 0.198137
vt 0.773665 0.198137
vt 0.787107 0.202505
vt 0.811217 0.249823
vt 0.806849 0.263265
vt 0.811217 0.235689
vt 0.798541 0.210812
vt 0.746089 0.283007
vt 0.734655 0.274700
vt 0.759531 0.287375
vt 0.726347 0.263265
vt 0.806849 0.222247
vt 0.746089 0.202505
vt 0.787107 0.283007
vt 0.494901 0.915801
vt 0.503467 0.915590
vt 0.498339 0.923075
vt 0.478304 0.948026
vt 0.480170 0.939630
vt 0.486371 0.946669
vt 0.504332 0.973224
vt 0.496921 0.968983
vt 0.505434 0.965182
vt 0.535690 0.956056
vt 0.529606 0.961842
vt 0.528542 0.952796
vt 0.530508 0.920787
vt 0.533930 0.928557
vt 0.524673 0.926631
vt 0.513057 0.938409
vt 0.514277 0.945732
vt 0.508632 0.942920
vt 0.518548 0.932815
vt 0.520172 0.941040
vt 0.527084 0.935302
vt 0.521159 0.949179
vt 0.528317 0.944592
vt 0.347448 0.406922
vt 0.299749 0.380976
vt 0.348701 0.360575
vt 0.311869 0.332854
vt 0.278933 0.345411
vt 0.535677 0.947636
vt 0.507714 0.949156
vt 0.514039 0.953238
vt 0.521646 0.957703
vt 0.506609 0.956813
vt 0.513481 0.962080
vt 0.521521 0.967205
vt 0.512586 0.971117
vt 0.502408 0.943972
vt 0.500463 0.951274
vt 0.498516 0.959988
vt 0.494754 0.945262
vt 0.491792 0.953461
vt 0.489292 0.962774
vt 0.482817 0.955341
vt 0.505703 0.937328
vt 0.498168 0.937719
vt 0.489273 0.938481
vt 0.502111 0.930504
vt 0.493498 0.930141
vt 0.483877 0.930475
vt 0.489128 0.922131
vt 0.510307 0.931334
vt 0.506629 0.923406
vt 0.516038 0.924113
vt 0.447706 0.422516
vt 0.465239 0.389175
vt 0.479153 0.432356
vt 0.511761 0.405650
vt 0.507857 0.363864
vt 0.522657 0.917464
vt 0.539903 0.919727
vt 0.553198 0.919920
vt 0.544564 0.930672
vt 0.306621 0.437288
vt 0.557680 0.934165
vt 0.546030 0.941343
vt 0.266271 0.411802
vt 0.537739 0.940800
vt 0.557680 0.949146
vt 0.544950 0.953736
vt 0.539971 0.964436
vt 0.544487 0.977085
vt 0.531448 0.972244
vt 0.532177 0.986687
vt 0.520383 0.978309
vt 0.517445 0.991948
vt 0.509173 0.981319
vt 0.497510 0.979764
vt 0.486703 0.987917
vt 0.487425 0.973887
vt 0.473707 0.978951
vt 0.478232 0.965033
vt 0.464176 0.966307
vt 0.471953 0.955122
vt 0.469961 0.943407
vt 0.458870 0.935393
vt 0.472637 0.931939
vt 0.463706 0.920165
vt 0.478489 0.920490
vt 0.473193 0.907234
vt 0.486275 0.911590
vt 0.497149 0.906323
vt 0.501800 0.893281
vt 0.509812 0.905180
vt 0.510383 0.913532
vt 0.517109 0.893398
vt 0.520579 0.906710
vt 0.433195 0.362648
vt 0.469064 0.337664
vt 0.531413 0.898051
vt 0.531548 0.911392
vt 0.553236 0.964159
vt 0.501779 0.992375
vt 0.459058 0.951297
vt 0.486350 0.897946
vt 0.544136 0.907173
vt 0.456906 0.391154
vt 0.290574 0.379259
vt 0.270409 0.343816
vt 0.355266 0.356811
vt 0.356227 0.411691
vt 0.311973 0.325344
vt 0.516850 0.407719
vt 0.480574 0.440529
vt 0.439921 0.424478
vt 0.515525 0.359105
vt 0.305614 0.447369
vt 0.255691 0.411429
vt 0.423497 0.363455
vt 0.467711 0.328483
vn -0.0000 -1.0000 -0.0000
vn -0.8506 0.4472 0.2764
vn -0.7355 0.4817 0.4765
vn -0.7103 0.6650 0.2308
vn -0.5257 0.4472 -0.7236
vn -0.6870 0.5038 -0.5237
vn -0.4390 0.6650 -0.6042
vn 0.5257 0.4472 -0.7236
vn 0.2857 0.5038 -0.8152
vn 0.4390 0.6650 -0.6042
vn 0.8506 0.4472 0.2764
vn 0.8636 0.5038 0.0198
vn 0.7103 0.6650 0.2308
vn 0.0000 0.4472 0.8944
vn 0.1754 0.4905 0.8536
vn 0.0000 0.6650 0.7469
vn 0.0000 0.9654 0.2608
vn 0.2480 0.9654 0.0806
vn 0.0000 1.0000 0.0000
vn 0.0000 0.8507 0.5257
vn 0.2675 0.8904 0.3682
vn 0.2035 0.7663 0.6093
vn 0.5000 0.8507 0.1625
vn 0.5166 0.7663 0.3818
vn 0.3748 0.5201 0.7675
vn 0.4714 0.5401 0.6972
vn 0.3919 0.6354 0.6653
vn 0.5115 0.6364 0.5773
vn 0.5849 0.5958 0.5504
vn 0.7355 0.4817 0.4765
vn 0.1533 0.9654 -0.2110
vn 0.4329 0.8904 -0.1406
vn 0.6835 0.7276 -0.0592
vn 0.3090 0.8507 -0.4253
vn 0.5878 0.7276 -0.3539
vn 0.8090 0.5257 -0.2629
vn 0.6870 0.5038 -0.5237
vn -0.1533 0.9654 -0.2110
vn 0.0000 0.8904 -0.4551
vn 0.1549 0.7276 -0.6683
vn -0.3090 0.8507 -0.4253
vn -0.1549 0.7276 -0.6683
vn -0.0000 0.5257 -0.8506
vn -0.2857 0.5038 -0.8152
vn -0.2480 0.9654 0.0806
vn -0.4329 0.8904 -0.1406
vn -0.5878 0.7276 -0.3539
vn -0.5000 0.8507 0.1625
vn -0.6835 0.7276 -0.0592
vn -0.8090 0.5257 -0.2629
vn -0.8636 0.5038 0.0198
vn -0.2675 0.8904 0.3682
vn -0.5166 0.7663 0.3818
vn -0.2035 0.7663 0.6093
vn -0.5849 0.5958 0.5504
vn -0.4714 0.5401 0.6972
vn -0.5115 0.6364 0.5773
vn -0.3919 0.6354 0.6653
vn -0.3748 0.5201 0.7675
vn -0.1754 0.4905 0.8536
vn 0.1533 0.2431 0.9578
vn 0.3109 0.1169 0.9432
vn 0.4073 0.2052 0.8899
vn 0.4759 0.4021 0.7822
vn 0.5829 0.1283 0.8023
vn 0.7081 0.2535 0.6591
vn 0.5484 0.3601 0.7548
vn 0.6409 0.4399 0.6291
vn 0.8010 0.1169 0.5872
vn 0.8636 0.2431 0.4417
vn 0.9583 0.2431 0.1502
vn 0.9931 0.1169 -0.0043
vn 0.9510 0.2724 -0.1461
vn 0.9432 0.1283 -0.3065
vn 0.8553 0.2724 -0.4408
vn 0.8060 0.1169 -0.5803
vn 0.6870 0.2431 -0.6848
vn 0.4390 0.2431 -0.8650
vn 0.3029 0.1169 -0.9458
vn 0.1549 0.2724 -0.9496
vn -0.0000 0.1283 -0.9917
vn -0.1549 0.2724 -0.9496
vn -0.3029 0.1169 -0.9458
vn -0.4390 0.2431 -0.8650
vn -0.6870 0.2431 -0.6848
vn -0.8060 0.1169 -0.5803
vn -0.8553 0.2724 -0.4408
vn -0.9432 0.1283 -0.3065
vn -0.9510 0.2724 -0.1461
vn -0.9931 0.1169 -0.0043
vn -0.9583 0.2431 0.1502
vn -0.8636 0.2431 0.4417
vn -0.8010 0.1169 0.5872
vn -0.7081 0.2535 0.6591
vn -0.6409 0.4399 0.6291
vn -0.5829 0.1283 0.8023
vn -0.4074 0.2052 0.8899
vn -0.5484 0.3601 0.7548
vn -0.4759 0.4021 0.7822
vn -0.3109 0.1169 0.9432
vn -0.1533 0.2431 0.9578
vn 0.9452 0.1105 0.3071
vn 0.5842 0.1105 -0.8041
vn -0.5842 0.1105 -0.8041
vn -0.9452 0.1105 0.3071
vn 0.0000 0.1105 0.9939
vn -0.3582 -0.8066 0.4702
vn -0.3000 -0.8691 0.3933
vn -0.2941 -0.8745 0.3856
vn 0.3582 -0.8066 0.4702
vn 0.3000 -0.8691 0.3933
vn 0.3640 -0.7995 0.4778
vn -0.3751 0.7699 -0.5163
vn -0.9191 0.3108 0.2422
vn -0.9205 0.3090 0.2391
vn -0.9207 0.3088 0.2388
vn 0.4905 0.2870 -0.8228
vn 0.5086 0.3128 -0.8021
vn 0.5104 0.3153 -0.8000
vn 0.3751 0.7699 -0.5163
vn -0.4905 0.2870 -0.8228
vn -0.5086 0.3128 -0.8021
vn -0.4886 0.2843 -0.8249
vn 0.9191 0.3108 0.2422
vn 0.9205 0.3090 0.2391
vn 0.9189 0.3110 0.2425
vn -0.6438 -0.4470 0.6211
vn -0.6451 -0.4491 0.6181
vn -0.6437 -0.4467 0.6214
vn 0.2139 -0.9312 0.2951
vn 0.2308 -0.9166 0.3264
vn 0.2123 -0.9325 0.2922
vn 0.5759 0.4791 -0.6624
vn 0.5181 0.4229 -0.7434
vn 0.5125 0.4175 -0.7504
vn -0.5759 0.4791 -0.6624
vn -0.5181 0.4229 -0.7434
vn -0.5812 0.4842 -0.6540
vn 0.6438 -0.4470 0.6211
vn 0.6451 -0.4491 0.6181
vn 0.6453 -0.4493 0.6179
vn -0.2139 -0.9312 0.2951
vn -0.2308 -0.9166 0.3264
vn -0.2323 -0.9153 0.3291
vn -0.3640 -0.7995 0.4777
vn 0.2941 -0.8745 0.3856
vn -0.9189 0.3110 0.2425
vn 0.4886 0.2843 -0.8249
vn -0.5104 0.3153 -0.8000
vn 0.9207 0.3088 0.2388
vn -0.6453 -0.4493 0.6179
vn 0.2323 -0.9153 0.3291
vn 0.5812 0.4842 -0.6540
vn -0.5125 0.4175 -0.7503
vn 0.6437 -0.4467 0.6214
vn -0.2123 -0.9325 0.2922
s off
f 8/1/1 79/2/1 21/3/1
f 13/4/1 89/5/1 16/6/1
f 20/7/1 76/8/1 25/9/1
f 8/1/1 21/3/1 9/10/1
f 91/11/1 8/1/1 9/10/1
f 73/12/1 20/7/1 87/13/1
f 12/14/1 82/15/1 90/16/1
f 13/4/1 90/16/1 89/5/1
f 9/10/1 21/3/1 73/12/1
f 73/12/1 21/3/1 20/7/1
f 90/16/1 17/17/1 89/5/1
f 24/18/1 73/12/1 87/13/1
f 90/16/1 82/15/1 17/17/1
f 13/4/1 16/6/1 8/1/1
f 21/3/1 88/19/1 20/7/1
f 8/1/1 16/6/1 79/2/1
f 87/13/1 20/7/1 25/9/1
f 85/20/1 13/4/1 8/1/1
s 1
f 1/21/2 93/22/3 44/23/4
f 2/24/5 32/25/6 50/26/7
f 3/27/8 35/28/9 53/29/10
f 4/30/11 38/31/12 56/32/13
f 5/33/14 98/34/15 45/35/16
f 47/36/17 54/37/18 6/38/19
f 46/39/20 57/40/21 47/36/17
f 45/35/16 96/41/22 46/39/20
f 47/36/17 57/40/21 54/37/18
f 57/40/21 55/42/23 54/37/18
f 46/39/20 96/41/22 57/40/21
f 96/41/22 97/43/24 57/40/21
f 57/40/21 97/43/24 55/42/23
f 97/43/24 56/32/13 55/42/23
f 45/35/16 98/34/15 96/41/22
f 41/44/25 40/45/26 58/46/27
f 58/46/27 40/45/26 59/47/28
f 40/45/26 39/48/29 59/47/28
f 97/43/24 94/49/30 56/32/13
f 94/49/30 4/30/11 56/32/13
f 54/37/18 51/50/31 6/38/19
f 55/42/23 60/51/32 54/37/18
f 56/32/13 61/52/33 55/42/23
f 54/37/18 60/51/32 51/50/31
f 60/51/32 52/53/34 51/50/31
f 55/42/23 61/52/33 60/51/32
f 61/52/33 62/54/35 60/51/32
f 60/51/32 62/54/35 52/53/34
f 62/54/35 53/29/10 52/53/34
f 56/32/13 38/31/12 61/52/33
f 38/31/12 37/55/36 61/52/33
f 61/52/33 37/55/36 62/54/35
f 37/55/36 36/56/37 62/54/35
f 62/54/35 36/56/37 53/29/10
f 36/56/37 3/27/8 53/29/10
f 51/50/31 48/57/38 6/38/19
f 52/53/34 63/58/39 51/50/31
f 53/29/10 64/59/40 52/53/34
f 51/50/31 63/58/39 48/57/38
f 63/58/39 49/60/41 48/57/38
f 52/53/34 64/59/40 63/58/39
f 64/59/40 65/61/42 63/58/39
f 63/58/39 65/61/42 49/60/41
f 65/61/42 50/26/7 49/60/41
f 53/29/10 35/28/9 64/59/40
f 35/28/9 34/62/43 64/59/40
f 64/59/40 34/62/43 65/61/42
f 34/62/43 33/63/44 65/61/42
f 65/61/42 33/63/44 50/26/7
f 33/63/44 2/24/5 50/26/7
f 48/57/38 42/64/45 6/38/19
f 49/60/41 66/65/46 48/57/38
f 50/26/7 67/66/47 49/60/41
f 48/57/38 66/65/46 42/64/45
f 66/65/46 43/67/48 42/64/45
f 49/60/41 67/66/47 66/65/46
f 67/66/47 68/68/49 66/65/46
f 66/65/46 68/68/49 43/67/48
f 68/68/49 44/23/4 43/67/48
f 50/26/7 32/25/6 67/66/47
f 32/25/6 31/69/50 67/66/47
f 67/66/47 31/69/50 68/68/49
f 31/69/50 30/70/51 68/68/49
f 68/68/49 30/70/51 44/23/4
f 30/70/51 1/21/2 44/23/4
f 42/64/45 47/36/17 6/38/19
f 43/67/48 69/71/52 42/64/45
f 44/23/4 99/72/53 43/67/48
f 42/64/45 69/71/52 47/36/17
f 69/71/52 46/39/20 47/36/17
f 43/67/48 99/72/53 69/71/52
f 99/72/53 100/73/54 69/71/52
f 69/71/52 100/73/54 46/39/20
f 100/73/54 45/35/16 46/39/20
f 44/23/4 93/22/3 99/72/53
f 29/74/55 92/75/56 70/76/57
f 70/76/57 92/75/56 71/77/58
f 92/75/56 27/78/59 71/77/58
f 100/73/54 101/79/60 45/35/16
f 101/79/60 5/33/14 45/35/16
f 10/80/61 98/34/15 5/33/14
f 9/81/62 72/82/63 10/80/61
f 10/80/61 72/82/63 98/34/15
f 102/83/64 40/45/26 41/44/25
f 9/81/62 73/84/65 72/82/63
f 73/84/65 103/85/66 72/82/63
f 102/83/64 74/86/67 40/45/26
f 103/85/66 94/49/30 95/87/68
f 73/84/65 24/88/69 103/85/66
f 24/88/69 23/89/70 103/85/66
f 103/85/66 23/89/70 94/49/30
f 23/89/70 4/30/11 94/49/30
f 26/90/71 38/31/12 4/30/11
f 25/91/72 75/92/73 26/90/71
f 26/90/71 75/92/73 38/31/12
f 75/92/73 37/55/36 38/31/12
f 25/91/72 76/93/74 75/92/73
f 76/93/74 77/94/75 75/92/73
f 75/92/73 77/94/75 37/55/36
f 77/94/75 36/56/37 37/55/36
f 76/93/74 20/95/76 77/94/75
f 20/95/76 19/96/77 77/94/75
f 77/94/75 19/96/77 36/56/37
f 19/96/77 3/27/8 36/56/37
f 22/97/78 35/28/9 3/27/8
f 21/98/79 78/99/80 22/97/78
f 22/97/78 78/99/80 35/28/9
f 78/99/80 34/62/43 35/28/9
f 21/98/79 79/100/81 78/99/80
f 79/100/81 80/101/82 78/99/80
f 78/99/80 80/101/82 34/62/43
f 80/101/82 33/63/44 34/62/43
f 79/100/81 16/102/83 80/101/82
f 16/102/83 15/103/84 80/101/82
f 80/101/82 15/103/84 33/63/44
f 15/103/84 2/24/5 33/63/44
f 18/104/85 32/25/6 2/24/5
f 17/105/86 81/106/87 18/104/85
f 18/104/85 81/106/87 32/25/6
f 81/106/87 31/69/50 32/25/6
f 17/105/86 82/107/88 81/106/87
f 82/107/88 83/108/89 81/106/87
f 81/106/87 83/108/89 31/69/50
f 83/108/89 30/70/51 31/69/50
f 82/107/88 12/109/90 83/108/89
f 12/109/90 11/110/91 83/108/89
f 83/108/89 11/110/91 30/70/51
f 11/110/91 1/21/2 30/70/51
f 14/111/92 93/22/3 1/21/2
f 13/112/93 104/113/94 14/111/92
f 14/111/92 104/113/94 93/22/3
f 104/113/94 28/114/95 93/22/3
f 13/112/93 85/115/96 104/113/94
f 85/115/96 105/116/97 104/113/94
f 84/117/98 86/118/99 92/75/56
f 86/118/99 27/78/59 92/75/56
f 85/115/96 8/119/100 105/116/97
f 8/119/100 7/120/101 105/116/97
f 105/116/97 7/120/101 101/79/60
f 7/120/101 5/33/14 101/79/60
f 23/89/70 26/90/71 4/30/11
f 24/88/69 87/121/102 23/89/70
f 23/89/70 87/121/102 26/90/71
f 87/121/102 25/91/72 26/90/71
f 19/96/77 22/97/78 3/27/8
f 20/95/76 88/122/103 19/96/77
f 19/96/77 88/122/103 22/97/78
f 88/122/103 21/98/79 22/97/78
f 15/103/84 18/104/85 2/24/5
f 16/102/83 89/123/104 15/103/84
f 15/103/84 89/123/104 18/104/85
f 89/123/104 17/105/86 18/104/85
f 11/110/91 14/111/92 1/21/2
f 12/109/90 90/124/105 11/110/91
f 11/110/91 90/124/105 14/111/92
f 90/124/105 13/112/93 14/111/92
f 7/120/101 10/80/61 5/33/14
f 8/119/100 91/125/106 7/120/101
f 7/120/101 91/125/106 10/80/61
f 91/125/106 9/81/62 10/80/61
f 29/74/107 28/126/108 92/75/109
f 39/48/110 95/127/111 94/128/112
f 59/47/113 96/129/113 58/46/113
f 58/46/114 98/130/115 41/44/116
f 39/48/117 97/131/118 59/47/119
f 70/76/120 100/132/120 99/133/120
f 29/74/121 99/133/122 93/134/123
f 71/77/124 101/135/125 100/132/126
f 102/83/127 98/130/128 72/136/129
f 74/86/130 72/136/131 103/137/132
f 74/86/133 95/127/134 40/45/135
f 84/117/136 28/126/137 104/138/138
f 86/118/139 101/135/140 27/78/141
f 84/117/142 105/139/143 86/118/144
f 29/74/107 93/134/145 28/126/108
f 39/48/110 40/45/146 95/127/111
f 59/47/113 97/131/113 96/129/113
f 58/46/114 96/129/147 98/130/115
f 39/48/117 94/128/148 97/131/118
f 70/76/120 71/77/120 100/132/120
f 29/74/121 70/76/149 99/133/122
f 71/77/124 27/78/150 101/135/125
f 102/83/127 41/44/151 98/130/128
f 74/86/130 102/83/152 72/136/131
f 74/86/133 103/137/153 95/127/134
f 84/117/136 92/75/154 28/126/137
f 86/118/139 105/139/155 101/135/140
f 84/117/142 104/138/156 105/139/143
l 107 116
l 116 114
l 115 117
l 117 112
l 113 118
l 118 110
l 111 119
l 119 108
l 109 120
l 120 106
l 121 115
l 114 121
l 122 113
l 112 122
l 123 111
l 110 123
l 124 109
l 108 124
l 125 107
l 106 125
l 119 82
