# Blender v3.0.0 OBJ File: 'pacman_hsiu.blend'
# www.blender.org
o pacman_head
v -0.850649 0.447220 0.276388
v -0.525725 0.447220 -0.723607
v 0.525725 0.447220 -0.723607
v 0.850649 0.447220 0.276388
v 0.000000 0.447216 0.894426
v 0.000000 1.000000 0.000000
v -0.147618 0.251149 0.956626
v -0.309013 -0.000000 0.951058
v 0.309013 0.000000 0.951058
v 0.147618 0.251149 0.956626
v -0.955422 0.251152 0.155215
v -1.000000 -0.000000 0.000000
v -0.809017 0.000000 0.587786
v -0.864188 0.251152 0.436007
v -0.442858 0.251151 -0.860698
v -0.309013 -0.000000 -0.951058
v -0.809017 0.000000 -0.587786
v -0.681715 0.251152 -0.687159
v 0.681715 0.251152 -0.687159
v 0.809017 -0.000000 -0.587786
v 0.309013 0.000000 -0.951058
v 0.442858 0.251151 -0.860698
v 0.864188 0.251152 0.436007
v 0.809017 -0.000000 0.587786
v 1.000000 0.000000 0.000000
v 0.955422 0.251152 0.155215
v -0.253861 0.523180 0.861909
v -0.499997 0.525736 0.688189
v -0.739938 0.526120 0.506025
v -0.864184 0.502302 0.029639
v -0.809012 0.525738 -0.262869
v -0.681712 0.502302 -0.531941
v -0.295238 0.502301 -0.812729
v 0.000000 0.525736 -0.850648
v 0.295238 0.502301 -0.812729
v 0.681712 0.502302 -0.531941
v 0.809012 0.525738 -0.262869
v 0.864184 0.502302 0.029639
v 0.739938 0.526120 0.506025
v 0.523392 0.545499 0.715165
v 0.253861 0.523180 0.861909
v -0.238853 0.967950 0.077607
v -0.499995 0.850654 0.162456
v -0.716563 0.657519 0.232822
v 0.000000 0.657515 0.753442
v 0.000000 0.850652 0.525730
v 0.000000 0.967949 0.251147
v -0.147618 0.967950 -0.203181
v -0.309011 0.850654 -0.425323
v -0.442856 0.657519 -0.609547
v 0.147618 0.967950 -0.203181
v 0.309011 0.850654 -0.425323
v 0.442856 0.657519 -0.609547
v 0.238853 0.967950 0.077607
v 0.499995 0.850654 0.162456
v 0.716563 0.657519 0.232822
v 0.262863 0.894429 0.361800
v 0.278559 0.749165 0.664894
v 0.546271 0.749167 0.470387
v 0.425319 0.894430 -0.138197
v 0.688185 0.723612 -0.052790
v 0.587778 0.723612 -0.361804
v 0.000000 0.894429 -0.447210
v 0.162457 0.723611 -0.670817
v -0.162457 0.723611 -0.670817
v -0.425319 0.894430 -0.138197
v -0.587778 0.723612 -0.361804
v -0.688185 0.723612 -0.052790
v -0.262863 0.894429 0.361800
v -0.546271 0.749167 0.470387
v -0.278559 0.749165 0.664894
v 0.425322 0.276396 0.861804
v 0.587782 0.000000 0.809019
v 0.710114 0.290843 0.700997
v 0.951055 0.276397 -0.138199
v 0.951057 -0.000000 -0.309016
v 0.850649 0.276397 -0.447215
v 0.162458 0.276396 -0.947213
v -0.000000 0.000001 -1.000000
v -0.162458 0.276397 -0.947213
v -0.850648 0.276397 -0.447216
v -0.951056 -0.000001 -0.309017
v -0.951055 0.276397 -0.138199
v -0.710114 0.290842 0.700997
v -0.587783 -0.000002 0.809019
v -0.444437 0.292538 0.893210
v 0.951056 -0.000000 0.309017
v 0.587783 -0.000000 -0.809018
v -0.587783 0.000000 -0.809018
v -0.951056 0.000000 0.309017
v 0.000000 0.000000 1.000000
v -0.523392 0.545499 0.715165
v -0.716565 0.502302 0.483971
v 0.716565 0.502302 0.483971
v 0.499997 0.525736 0.688189
v 0.262864 0.723610 0.638194
v 0.525728 0.723612 0.447209
v 0.238853 0.502299 0.831051
v -0.525728 0.723612 0.447209
v -0.262864 0.723610 0.638194
v -0.238853 0.502299 0.831051
v 0.444436 0.292540 0.893210
v 0.688189 0.276397 0.670821
v -0.688190 0.276396 0.670820
v -0.425323 0.276394 0.861804
vt 0.508023 0.954522
vt 0.501571 0.954423
vt 0.504883 0.948885
vt 0.533833 0.954918
vt 0.527381 0.954819
vt 0.530693 0.949280
vt 0.430594 0.953335
vt 0.424141 0.953236
vt 0.427453 0.947697
vt 0.456404 0.953730
vt 0.449951 0.953631
vt 0.453263 0.948093
vt 0.482213 0.954126
vt 0.475761 0.954027
vt 0.479073 0.948489
vt 0.472792 0.937214
vt 0.466339 0.937115
vt 0.469651 0.931576
vt 0.475932 0.942851
vt 0.469480 0.942752
vt 0.472621 0.948390
vt 0.463028 0.942653
vt 0.466168 0.948291
vt 0.459716 0.948192
vt 0.792249 0.407838
vt 0.758940 0.396141
vt 0.792162 0.382870
vt 0.774069 0.365351
vt 0.756222 0.366311
vt 0.462856 0.953829
vt 0.446982 0.936818
vt 0.440530 0.936719
vt 0.443842 0.931180
vt 0.450123 0.942455
vt 0.443670 0.942356
vt 0.446811 0.947994
vt 0.437218 0.942257
vt 0.440358 0.947895
vt 0.433906 0.947796
vt 0.443499 0.953532
vt 0.437046 0.953433
vt 0.421172 0.936422
vt 0.414720 0.936323
vt 0.418032 0.930784
vt 0.424313 0.942059
vt 0.417860 0.941960
vt 0.421001 0.947598
vt 0.411408 0.941861
vt 0.414548 0.947499
vt 0.408096 0.947400
vt 0.417689 0.953137
vt 0.411236 0.953038
vt 0.404784 0.952939
vt 0.524412 0.938005
vt 0.517959 0.937906
vt 0.521271 0.932368
vt 0.527552 0.943643
vt 0.521100 0.943544
vt 0.524240 0.949181
vt 0.514647 0.943445
vt 0.517788 0.949082
vt 0.511335 0.948983
vt 0.520928 0.954720
vt 0.514476 0.954621
vt 0.498602 0.937609
vt 0.492149 0.937510
vt 0.495461 0.931972
vt 0.501742 0.943247
vt 0.495290 0.943148
vt 0.498430 0.948786
vt 0.488837 0.943049
vt 0.491978 0.948687
vt 0.485525 0.948588
vt 0.896515 0.355090
vt 0.893332 0.391385
vt 0.873023 0.354626
vt 0.852067 0.377022
vt 0.853334 0.405735
vt 0.488666 0.954225
vt 0.478902 0.959665
vt 0.475590 0.965203
vt 0.472449 0.959566
vt 0.776137 0.426619
vt 0.469137 0.965104
vt 0.465997 0.959467
vt 0.756184 0.426904
vt 0.469309 0.953928
vt 0.462685 0.965005
vt 0.459544 0.959368
vt 0.453092 0.959269
vt 0.449780 0.964807
vt 0.446639 0.959170
vt 0.443327 0.964709
vt 0.440187 0.959071
vt 0.436875 0.964610
vt 0.433734 0.958972
vt 0.427282 0.958873
vt 0.423970 0.964412
vt 0.420829 0.958774
vt 0.417517 0.964313
vt 0.414377 0.958675
vt 0.411065 0.964214
vt 0.407924 0.958576
vt 0.530521 0.960456
vt 0.527209 0.965995
vt 0.524069 0.960357
vt 0.520757 0.965896
vt 0.517616 0.960259
vt 0.514304 0.965797
vt 0.511164 0.960160
vt 0.504711 0.960061
vt 0.501400 0.965599
vt 0.498259 0.959962
vt 0.495118 0.954324
vt 0.494947 0.965500
vt 0.491807 0.959863
vt 0.896447 0.428427
vt 0.872605 0.427937
vt 0.488495 0.965401
vt 0.485354 0.959764
vt 0.456232 0.964906
vt 0.430422 0.964511
vt 0.401472 0.958477
vt 0.404613 0.964115
vt 0.398160 0.964016
vt 0.507852 0.965698
vt 0.482042 0.965302
vt 0.900760 0.391414
vt 0.752807 0.396148
vt 0.752863 0.363862
vt 0.795879 0.381054
vt 0.796760 0.409490
vt 0.775157 0.361573
vt 0.848041 0.375544
vt 0.870918 0.349393
vt 0.900760 0.351764
vt 0.848197 0.407797
vt 0.777661 0.430499
vt 0.752807 0.429567
vt 0.900479 0.431637
vt 0.870804 0.432542
vn -0.8506 0.4472 0.2764
vn -0.7355 0.4817 0.4765
vn -0.7103 0.6650 0.2308
vn -0.5257 0.4472 -0.7236
vn -0.6870 0.5038 -0.5237
vn -0.4390 0.6650 -0.6042
vn 0.5257 0.4472 -0.7236
vn 0.2857 0.5038 -0.8152
vn 0.4390 0.6650 -0.6042
vn 0.8506 0.4472 0.2764
vn 0.8636 0.5038 0.0198
vn 0.7103 0.6650 0.2308
vn 0.0000 0.4472 0.8944
vn 0.1754 0.4905 0.8536
vn -0.0000 0.6650 0.7469
vn 0.0000 0.9654 0.2608
vn 0.2480 0.9654 0.0806
vn -0.0000 1.0000 0.0000
vn 0.0000 0.8507 0.5257
vn 0.2675 0.8904 0.3682
vn 0.2035 0.7663 0.6093
vn 0.5000 0.8507 0.1625
vn 0.5166 0.7663 0.3818
vn 0.3748 0.5201 0.7675
vn 0.4714 0.5401 0.6972
vn 0.3919 0.6354 0.6653
vn 0.5115 0.6364 0.5773
vn 0.5849 0.5958 0.5504
vn 0.7355 0.4817 0.4765
vn 0.1533 0.9654 -0.2110
vn 0.4329 0.8904 -0.1406
vn 0.6835 0.7276 -0.0592
vn 0.3090 0.8507 -0.4253
vn 0.5878 0.7276 -0.3539
vn 0.8090 0.5257 -0.2629
vn 0.6870 0.5038 -0.5237
vn -0.1533 0.9654 -0.2110
vn -0.0000 0.8904 -0.4551
vn 0.1549 0.7276 -0.6683
vn -0.3090 0.8507 -0.4253
vn -0.1549 0.7275 -0.6683
vn 0.0000 0.5257 -0.8506
vn -0.2857 0.5038 -0.8152
vn -0.2480 0.9654 0.0806
vn -0.4329 0.8904 -0.1406
vn -0.5878 0.7276 -0.3539
vn -0.5000 0.8507 0.1625
vn -0.6835 0.7276 -0.0592
vn -0.8090 0.5257 -0.2629
vn -0.8636 0.5038 0.0198
vn -0.2675 0.8904 0.3682
vn -0.5166 0.7663 0.3818
vn -0.2035 0.7663 0.6093
vn -0.5849 0.5958 0.5504
vn -0.4714 0.5401 0.6972
vn -0.5115 0.6364 0.5773
vn -0.3919 0.6354 0.6653
vn -0.3748 0.5201 0.7675
vn -0.1754 0.4905 0.8536
vn 0.1533 0.2431 0.9578
vn 0.3109 0.1169 0.9432
vn 0.4073 0.2052 0.8899
vn 0.4759 0.4021 0.7822
vn 0.5829 0.1283 0.8023
vn 0.7081 0.2535 0.6591
vn 0.5484 0.3601 0.7548
vn 0.6409 0.4399 0.6291
vn 0.8010 0.1169 0.5872
vn 0.8636 0.2431 0.4417
vn 0.9583 0.2431 0.1502
vn 0.9931 0.1169 -0.0043
vn 0.9510 0.2724 -0.1461
vn 0.9432 0.1283 -0.3065
vn 0.8553 0.2724 -0.4408
vn 0.8060 0.1169 -0.5803
vn 0.6870 0.2431 -0.6848
vn 0.4390 0.2431 -0.8650
vn 0.3029 0.1169 -0.9458
vn 0.1549 0.2724 -0.9496
vn -0.0000 0.1283 -0.9917
vn -0.1549 0.2724 -0.9496
vn -0.3029 0.1169 -0.9458
vn -0.4390 0.2431 -0.8650
vn -0.6870 0.2431 -0.6848
vn -0.8060 0.1169 -0.5803
vn -0.8553 0.2724 -0.4408
vn -0.9432 0.1283 -0.3065
vn -0.9510 0.2724 -0.1461
vn -0.9931 0.1169 -0.0043
vn -0.9583 0.2431 0.1502
vn -0.8636 0.2431 0.4417
vn -0.8010 0.1169 0.5872
vn -0.7081 0.2535 0.6591
vn -0.6409 0.4399 0.6291
vn -0.5829 0.1283 0.8023
vn -0.4074 0.2052 0.8899
vn -0.5484 0.3601 0.7548
vn -0.4759 0.4021 0.7822
vn -0.3109 0.1169 0.9432
vn -0.1533 0.2431 0.9578
vn 0.9452 0.1105 0.3071
vn 0.5842 0.1105 -0.8041
vn -0.5842 0.1105 -0.8041
vn -0.9452 0.1105 0.3071
vn 0.0000 0.1105 0.9939
vn -0.3582 -0.8066 0.4702
vn -0.3000 -0.8691 0.3933
vn -0.2941 -0.8745 0.3856
vn 0.3582 -0.8066 0.4702
vn 0.3000 -0.8691 0.3933
vn 0.3640 -0.7995 0.4777
vn -0.3751 0.7699 -0.5163
vn -0.9191 0.3108 0.2422
vn -0.9205 0.3090 0.2391
vn -0.9207 0.3088 0.2388
vn 0.4905 0.2870 -0.8228
vn 0.5086 0.3128 -0.8021
vn 0.5104 0.3153 -0.8000
vn 0.3751 0.7699 -0.5163
vn -0.4905 0.2870 -0.8228
vn -0.5086 0.3128 -0.8021
vn -0.4886 0.2843 -0.8249
vn 0.9191 0.3108 0.2422
vn 0.9205 0.3090 0.2391
vn 0.9189 0.3110 0.2425
vn -0.6438 -0.4470 0.6211
vn -0.6451 -0.4491 0.6181
vn -0.6437 -0.4467 0.6214
vn 0.2139 -0.9312 0.2951
vn 0.2308 -0.9166 0.3264
vn 0.2123 -0.9325 0.2922
vn 0.5759 0.4791 -0.6624
vn 0.5181 0.4229 -0.7434
vn 0.5125 0.4175 -0.7503
vn -0.5759 0.4791 -0.6624
vn -0.5181 0.4229 -0.7434
vn -0.5812 0.4842 -0.6540
vn 0.6438 -0.4470 0.6211
vn 0.6451 -0.4491 0.6181
vn 0.6453 -0.4493 0.6179
vn -0.2139 -0.9312 0.2951
vn -0.2308 -0.9166 0.3264
vn -0.2323 -0.9153 0.3291
vn -0.3640 -0.7995 0.4777
vn 0.2941 -0.8745 0.3856
vn -0.9189 0.3110 0.2425
vn 0.4886 0.2843 -0.8249
vn -0.5104 0.3153 -0.8000
vn 0.9207 0.3088 0.2388
vn -0.6453 -0.4493 0.6179
vn 0.2323 -0.9153 0.3291
vn 0.5812 0.4842 -0.6540
vn -0.5125 0.4175 -0.7503
vn 0.6437 -0.4467 0.6214
vn -0.2123 -0.9325 0.2922
s 1
f 1/1/1 93/2/2 44/3/3
f 2/4/4 32/5/5 50/6/6
f 3/7/7 35/8/8 53/9/9
f 4/10/10 38/11/11 56/12/12
f 5/13/13 98/14/14 45/15/15
f 47/16/16 54/17/17 6/18/18
f 46/19/19 57/20/20 47/16/16
f 45/15/15 96/21/21 46/19/19
f 47/16/16 57/20/20 54/17/17
f 57/20/20 55/22/22 54/17/17
f 46/19/19 96/21/21 57/20/20
f 96/21/21 97/23/23 57/20/20
f 57/20/20 97/23/23 55/22/22
f 97/23/23 56/24/12 55/22/22
f 45/15/15 98/14/14 96/21/21
f 41/25/24 40/26/25 58/27/26
f 58/27/26 40/26/25 59/28/27
f 40/26/25 39/29/28 59/28/27
f 97/23/23 94/30/29 56/24/12
f 94/30/29 4/10/10 56/24/12
f 54/31/17 51/32/30 6/33/18
f 55/34/22 60/35/31 54/31/17
f 56/12/12 61/36/32 55/34/22
f 54/31/17 60/35/31 51/32/30
f 60/35/31 52/37/33 51/32/30
f 55/34/22 61/36/32 60/35/31
f 61/36/32 62/38/34 60/35/31
f 60/35/31 62/38/34 52/37/33
f 62/38/34 53/39/9 52/37/33
f 56/12/12 38/11/11 61/36/32
f 38/11/11 37/40/35 61/36/32
f 61/36/32 37/40/35 62/38/34
f 37/40/35 36/41/36 62/38/34
f 62/38/34 36/41/36 53/39/9
f 36/41/36 3/7/7 53/39/9
f 51/42/30 48/43/37 6/44/18
f 52/45/33 63/46/38 51/42/30
f 53/9/9 64/47/39 52/45/33
f 51/42/30 63/46/38 48/43/37
f 63/46/38 49/48/40 48/43/37
f 52/45/33 64/47/39 63/46/38
f 64/47/39 65/49/41 63/46/38
f 63/46/38 65/49/41 49/48/40
f 65/49/41 50/50/6 49/48/40
f 53/9/9 35/8/8 64/47/39
f 35/8/8 34/51/42 64/47/39
f 64/47/39 34/51/42 65/49/41
f 34/51/42 33/52/43 65/49/41
f 65/49/41 33/52/43 50/50/6
f 33/52/43 2/53/4 50/50/6
f 48/54/37 42/55/44 6/56/18
f 49/57/40 66/58/45 48/54/37
f 50/6/6 67/59/46 49/57/40
f 48/54/37 66/58/45 42/55/44
f 66/58/45 43/60/47 42/55/44
f 49/57/40 67/59/46 66/58/45
f 67/59/46 68/61/48 66/58/45
f 66/58/45 68/61/48 43/60/47
f 68/61/48 44/62/3 43/60/47
f 50/6/6 32/5/5 67/59/46
f 32/5/5 31/63/49 67/59/46
f 67/59/46 31/63/49 68/61/48
f 31/63/49 30/64/50 68/61/48
f 68/61/48 30/64/50 44/62/3
f 30/64/50 1/1/1 44/62/3
f 42/65/44 47/66/16 6/67/18
f 43/68/47 69/69/51 42/65/44
f 44/3/3 99/70/52 43/68/47
f 42/65/44 69/69/51 47/66/16
f 69/69/51 46/71/19 47/66/16
f 43/68/47 99/70/52 69/69/51
f 99/70/52 100/72/53 69/69/51
f 69/69/51 100/72/53 46/71/19
f 100/72/53 45/73/15 46/71/19
f 44/3/3 93/2/2 99/70/52
f 29/74/54 92/75/55 70/76/56
f 70/76/56 92/75/55 71/77/57
f 92/75/55 27/78/58 71/77/57
f 100/72/53 101/79/59 45/73/15
f 101/79/59 5/13/13 45/73/15
f 10/80/60 98/14/14 5/13/13
f 9/81/61 72/82/62 10/80/60
f 10/80/60 72/82/62 98/14/14
f 102/83/63 40/26/25 41/25/24
f 9/81/61 73/84/64 72/82/62
f 73/84/64 103/85/65 72/82/62
f 102/83/63 74/86/66 40/26/25
f 103/85/65 94/30/29 95/87/67
f 73/84/64 24/88/68 103/85/65
f 24/88/68 23/89/69 103/85/65
f 103/85/65 23/89/69 94/30/29
f 23/89/69 4/10/10 94/30/29
f 26/90/70 38/11/11 4/10/10
f 25/91/71 75/92/72 26/90/70
f 26/90/70 75/92/72 38/11/11
f 75/92/72 37/40/35 38/11/11
f 25/91/71 76/93/73 75/92/72
f 76/93/73 77/94/74 75/92/72
f 75/92/72 77/94/74 37/40/35
f 77/94/74 36/41/36 37/40/35
f 76/93/73 20/95/75 77/94/74
f 20/95/75 19/96/76 77/94/74
f 77/94/74 19/96/76 36/41/36
f 19/96/76 3/7/7 36/41/36
f 22/97/77 35/8/8 3/7/7
f 21/98/78 78/99/79 22/97/77
f 22/97/77 78/99/79 35/8/8
f 78/99/79 34/51/42 35/8/8
f 21/98/78 79/100/80 78/99/79
f 79/100/80 80/101/81 78/99/79
f 78/99/79 80/101/81 34/51/42
f 80/101/81 33/52/43 34/51/42
f 79/100/80 16/102/82 80/101/81
f 16/102/82 15/103/83 80/101/81
f 80/101/81 15/103/83 33/52/43
f 15/103/83 2/53/4 33/52/43
f 18/104/84 32/5/5 2/4/4
f 17/105/85 81/106/86 18/104/84
f 18/104/84 81/106/86 32/5/5
f 81/106/86 31/63/49 32/5/5
f 17/105/85 82/107/87 81/106/86
f 82/107/87 83/108/88 81/106/86
f 81/106/86 83/108/88 31/63/49
f 83/108/88 30/64/50 31/63/49
f 82/107/87 12/109/89 83/108/88
f 12/109/89 11/110/90 83/108/88
f 83/108/88 11/110/90 30/64/50
f 11/110/90 1/1/1 30/64/50
f 14/111/91 93/2/2 1/1/1
f 13/112/92 104/113/93 14/111/91
f 14/111/91 104/113/93 93/2/2
f 104/113/93 28/114/94 93/2/2
f 13/112/92 85/115/95 104/113/93
f 85/115/95 105/116/96 104/113/93
f 84/117/97 86/118/98 92/75/55
f 86/118/98 27/78/58 92/75/55
f 85/115/95 8/119/99 105/116/96
f 8/119/99 7/120/100 105/116/96
f 105/116/96 7/120/100 101/79/59
f 7/120/100 5/13/13 101/79/59
f 23/89/69 26/90/70 4/10/10
f 24/88/68 87/121/101 23/89/69
f 23/89/69 87/121/101 26/90/70
f 87/121/101 25/91/71 26/90/70
f 19/96/76 22/97/77 3/7/7
f 20/95/75 88/122/102 19/96/76
f 19/96/76 88/122/102 22/97/77
f 88/122/102 21/98/78 22/97/77
f 15/103/83 18/123/84 2/53/4
f 16/102/82 89/124/103 15/103/83
f 15/103/83 89/124/103 18/123/84
f 89/124/103 17/125/85 18/123/84
f 11/110/90 14/111/91 1/1/1
f 12/109/89 90/126/104 11/110/90
f 11/110/90 90/126/104 14/111/91
f 90/126/104 13/112/92 14/111/91
f 7/120/100 10/80/60 5/13/13
f 8/119/99 91/127/105 7/120/100
f 7/120/100 91/127/105 10/80/60
f 91/127/105 9/81/61 10/80/60
f 29/74/106 28/128/107 92/75/108
f 39/29/109 95/129/110 94/130/111
f 59/28/112 96/131/112 58/27/112
f 58/27/113 98/132/114 41/25/115
f 39/29/116 97/133/117 59/28/118
f 70/76/119 100/134/119 99/135/119
f 29/74/120 99/135/121 93/136/122
f 71/77/123 101/137/124 100/134/125
f 102/83/126 98/132/127 72/138/128
f 74/86/129 72/138/130 103/139/131
f 74/86/132 95/129/133 40/26/134
f 84/117/135 28/128/136 104/140/137
f 86/118/138 101/137/139 27/78/140
f 84/117/141 105/141/142 86/118/143
f 29/74/106 93/136/144 28/128/107
f 39/29/109 40/26/145 95/129/110
f 59/28/112 97/133/112 96/131/112
f 58/27/113 96/131/146 98/132/114
f 39/29/116 94/130/147 97/133/117
f 70/76/119 71/77/119 100/134/119
f 29/74/120 70/76/148 99/135/121
f 71/77/123 27/78/149 101/137/124
f 102/83/126 41/25/150 98/132/127
f 74/86/129 102/83/151 72/138/130
f 74/86/132 103/139/152 95/129/133
f 84/117/135 92/75/153 28/128/136
f 86/118/138 105/141/154 101/137/139
f 84/117/141 104/140/155 105/141/142
