# Blender v3.0.0 OBJ File: 'pacman_hsiu.blend'
# www.blender.org
o pacman_body_Icosphere
v 0.000000 0.000000 0.000000
v -0.525725 0.552781 0.723607
v -0.850649 0.552780 -0.276388
v 0.000000 0.552784 -0.894426
v 0.850649 0.552780 -0.276388
v 0.525725 0.552781 0.723607
v -0.716563 0.342481 -0.232822
v -0.499995 0.149346 -0.162456
v -0.238853 0.032050 -0.077607
v -0.147618 0.032050 0.203181
v -0.309011 0.149346 0.425323
v -0.442856 0.342481 0.609547
v -0.681712 0.497698 0.531941
v -0.809012 0.474262 0.262869
v -0.864184 0.497698 -0.029639
v 0.295238 0.497699 0.812729
v 0.000000 0.474264 0.850648
v -0.295238 0.497699 0.812729
v 0.147618 0.032050 0.203181
v 0.309011 0.149346 0.425323
v 0.442856 0.342481 0.609547
v 0.000000 0.342485 -0.753442
v 0.000000 0.149348 -0.525730
v 0.000000 0.032051 -0.251147
v -0.716565 0.497698 -0.483971
v -0.499997 0.474264 -0.688189
v -0.238853 0.497701 -0.831051
v 0.716563 0.342481 -0.232822
v 0.499995 0.149346 -0.162456
v 0.238853 0.032050 -0.077607
v 0.238853 0.497701 -0.831051
v 0.499997 0.474264 -0.688189
v 0.716565 0.497698 -0.483971
v 0.864184 0.497698 -0.029639
v 0.809012 0.474262 0.262869
v 0.681712 0.497698 0.531941
v -0.309013 1.000000 0.951058
v -0.442858 0.748849 0.860698
v 0.442858 0.748849 0.860698
v 0.309013 1.000000 0.951058
v -1.000000 1.000000 0.000000
v -0.955422 0.748848 -0.155215
v -0.681715 0.748848 0.687159
v -0.809017 1.000000 0.587786
v -0.309013 1.000000 -0.951058
v -0.147618 0.748851 -0.956626
v -0.864188 0.748848 -0.436007
v -0.809017 1.000000 -0.587786
v 0.809017 1.000000 -0.587786
v 0.864188 0.748848 -0.436007
v 0.147618 0.748851 -0.956626
v 0.309013 1.000000 -0.951058
v 0.809017 1.000000 0.587786
v 0.681715 0.748848 0.687159
v 0.955422 0.748848 -0.155215
v 1.000000 1.000000 0.000000
v 0.587782 1.000000 0.809019
v 0.951057 1.000000 -0.309016
v -0.000000 1.000001 -1.000000
v -0.951056 0.999999 -0.309017
v -0.587783 0.999998 0.809019
v 0.951056 1.000000 0.309017
v 0.850648 0.723602 0.447216
v 0.951055 0.723602 0.138199
v 0.587783 1.000000 -0.809018
v 0.688191 0.723603 -0.670819
v 0.425324 0.723604 -0.861803
v -0.587783 1.000000 -0.809018
v -0.425324 0.723604 -0.861803
v -0.688191 0.723603 -0.670819
v -0.951056 1.000000 0.309017
v -0.951055 0.723602 0.138199
v -0.850648 0.723602 0.447216
v 0.000000 1.000000 1.000000
v -0.162458 0.723604 0.947213
v 0.162458 0.723604 0.947213
v 0.587779 0.276388 0.361803
v 0.425321 0.105571 0.138197
v 0.688186 0.276389 0.052789
v 0.525727 0.276388 -0.447211
v 0.262863 0.105571 -0.361801
v 0.262863 0.276391 -0.638195
v -0.262864 0.276391 -0.638195
v -0.262864 0.105572 -0.361801
v -0.525729 0.276390 -0.447211
v 0.162457 0.276389 0.670817
v -0.162458 0.276390 0.670818
v -0.000001 0.105572 0.447211
v -0.688185 0.276388 0.052790
v -0.425321 0.105571 0.138199
v -0.587779 0.276389 0.361805
v 0.001814 1.000000 -0.005583
v -0.001814 1.000000 -0.005583
v 0.005870 1.000000 0.000000
v 0.004749 1.000000 -0.003450
v 0.001814 1.000000 0.005583
v 0.004749 1.000000 0.003451
v -0.004749 1.000000 0.003451
v -0.001814 1.000000 0.005583
v -0.004749 1.000000 -0.003450
v -0.005871 1.000000 0.000000
v -0.003451 1.000000 -0.004749
v -0.005583 1.000000 0.001814
v -0.000000 1.000000 0.005871
v 0.005583 1.000000 0.001814
v 0.003451 1.000000 -0.004749
v -0.005583 1.000000 -0.001814
v -0.003451 1.000000 0.004749
v 0.003451 1.000000 0.004749
v 0.005583 1.000000 -0.001814
v -0.000000 1.000000 -0.005870
vt 0.717527 0.218629
vt 0.744815 0.302614
vt 0.703622 0.245917
vt 0.775064 0.209516
vt 0.796720 0.231172
vt 0.801511 0.261422
vt 0.787607 0.288710
vt 0.775064 0.297823
vt 0.760319 0.302614
vt 0.744815 0.204725
vt 0.787607 0.218629
vt 0.717526 0.288710
vt 0.708413 0.276167
vt 0.796720 0.276167
vt 0.760319 0.204725
vt 0.730069 0.209516
vt 0.801511 0.245918
vt 0.708413 0.231172
vt 0.730069 0.297823
vt 0.703622 0.261422
vt 0.551467 0.942775
vt 0.552351 0.948321
vt 0.546465 0.945330
vt 0.555757 0.969685
vt 0.554621 0.962563
vt 0.562243 0.965779
vt 0.547491 0.938807
vt 0.554011 0.937768
vt 0.557015 0.943648
vt 0.561935 0.975332
vt 0.527199 0.955171
vt 0.532919 0.960133
vt 0.523737 0.962792
vt 0.532178 0.923526
vt 0.529227 0.930499
vt 0.523861 0.922588
vt 0.563813 0.918483
vt 0.556269 0.917830
vt 0.562135 0.910282
vt 0.578385 0.947010
vt 0.576675 0.939634
vt 0.585666 0.942880
vt 0.551641 0.976974
vt 0.518996 0.953509
vt 0.531224 0.915210
vt 0.571427 0.915005
vt 0.584045 0.953177
vt 0.595284 0.949669
vt 0.591024 0.962873
vt 0.595284 0.935795
vt 0.571564 0.903232
vt 0.582805 0.911364
vt 0.558369 0.898945
vt 0.520070 0.911442
vt 0.531277 0.903264
vt 0.511915 0.922666
vt 0.511965 0.962953
vt 0.507651 0.949766
vt 0.520120 0.974177
vt 0.558450 0.986579
vt 0.544576 0.986607
vt 0.571645 0.982291
vt 0.583250 0.932854
vt 0.591001 0.922581
vt 0.578134 0.922839
vt 0.573380 0.931581
vt 0.568787 0.924192
vt 0.551853 0.909481
vt 0.544477 0.898935
vt 0.540747 0.911252
vt 0.547593 0.918475
vt 0.539145 0.920560
vt 0.519922 0.932119
vt 0.507613 0.935875
vt 0.518174 0.943229
vt 0.527159 0.938950
vt 0.526532 0.947628
vt 0.531585 0.969483
vt 0.531353 0.982350
vt 0.541610 0.974578
vt 0.540318 0.964711
vt 0.548377 0.967989
vt 0.570724 0.969937
vt 0.582889 0.974134
vt 0.578668 0.961977
vt 0.568884 0.960157
vt 0.574492 0.953505
vt 0.571261 0.945890
vt 0.563828 0.944720
vt 0.568633 0.938668
vt 0.560728 0.938044
vt 0.564856 0.931273
vt 0.557136 0.931620
vt 0.560546 0.924911
vt 0.552866 0.925180
vt 0.549829 0.932505
vt 0.544665 0.926487
vt 0.542609 0.933935
vt 0.537283 0.928620
vt 0.535165 0.936007
vt 0.541194 0.941158
vt 0.533874 0.944210
vt 0.540323 0.948467
vt 0.533622 0.951890
vt 0.566543 0.951955
vt 0.560677 0.957832
vt 0.558827 0.950121
vt 0.553437 0.955132
vt 0.539992 0.956187
vt 0.546755 0.952045
vt 0.547395 0.959950
vn 0.0000 1.0000 -0.0000
vn 0.0000 -1.0000 -0.0000
vn -0.1533 -0.9654 0.2110
vn -0.2480 -0.9654 -0.0806
vn -0.5257 -0.4472 0.7236
vn -0.4390 -0.6650 0.6042
vn -0.2857 -0.5038 0.8152
vn -0.0000 -0.9654 -0.2608
vn 0.2480 -0.9654 -0.0806
vn 0.1533 -0.9654 0.2110
vn -0.4390 -0.2431 0.8650
vn -0.8506 -0.4472 -0.2764
vn -0.8636 -0.5038 -0.0198
vn -0.9583 -0.2431 -0.1502
vn -0.0000 -0.4472 -0.8944
vn -0.2480 -0.5038 -0.8274
vn -0.1533 -0.2431 -0.9578
vn 0.8506 -0.4472 -0.2764
vn 0.7103 -0.5038 -0.4915
vn 0.8636 -0.2431 -0.4417
vn 0.5257 -0.4472 0.7236
vn 0.6870 -0.5038 0.5237
vn 0.6870 -0.2431 0.6848
vn -0.6870 -0.2431 0.6848
vn -0.8636 -0.2431 -0.4417
vn 0.1533 -0.2431 -0.9578
vn 0.9583 -0.2431 -0.1502
vn 0.4390 -0.2431 0.8650
vn 0.5842 -0.1105 0.8041
vn 0.3029 -0.1169 0.9458
vn 0.8060 -0.1169 0.5803
vn 0.9452 -0.1105 -0.3071
vn 0.9931 -0.1169 0.0043
vn 0.8010 -0.1169 -0.5872
vn -0.0000 -0.1105 -0.9939
vn 0.3109 -0.1169 -0.9432
vn -0.3109 -0.1169 -0.9432
vn -0.9452 -0.1105 -0.3071
vn -0.8010 -0.1169 -0.5872
vn -0.9931 -0.1169 0.0043
vn -0.5842 -0.1105 0.8041
vn -0.8060 -0.1169 0.5803
vn -0.3028 -0.1169 0.9458
vn 0.8553 -0.2724 0.4408
vn 0.9432 -0.1283 0.3065
vn 0.9510 -0.2724 0.1461
vn 0.8090 -0.5257 0.2629
vn 0.8636 -0.5038 -0.0198
vn 0.6835 -0.2724 -0.6772
vn 0.5829 -0.1283 -0.8023
vn 0.4329 -0.2724 -0.8593
vn 0.5000 -0.5257 -0.6882
vn 0.2480 -0.5038 -0.8274
vn -0.4329 -0.2724 -0.8593
vn -0.5829 -0.1283 -0.8023
vn -0.6835 -0.2724 -0.6772
vn -0.5000 -0.5257 -0.6882
vn -0.7103 -0.5038 -0.4915
vn -0.9510 -0.2724 0.1461
vn -0.9432 -0.1283 0.3065
vn -0.8553 -0.2724 0.4408
vn -0.8090 -0.5257 0.2629
vn -0.6870 -0.5038 0.5237
vn -0.1549 -0.2724 0.9496
vn 0.0000 -0.1283 0.9917
vn 0.1549 -0.2724 0.9496
vn 0.0000 -0.5257 0.8506
vn 0.2857 -0.5038 0.8152
vn 0.4390 -0.6650 0.6042
vn 0.3090 -0.8507 0.4253
vn 0.5878 -0.7276 0.3539
vn 0.4329 -0.8904 0.1406
vn 0.6835 -0.7276 0.0592
vn 0.5000 -0.8507 -0.1625
vn 0.7103 -0.6650 -0.2308
vn 0.5182 -0.7276 -0.4496
vn 0.2675 -0.8904 -0.3682
vn 0.2675 -0.7275 -0.6317
vn -0.0000 -0.8507 -0.5257
vn -0.0000 -0.6650 -0.7469
vn -0.2675 -0.7275 -0.6317
vn -0.2675 -0.8904 -0.3682
vn -0.5182 -0.7275 -0.4496
vn -0.5000 -0.8507 -0.1625
vn -0.7103 -0.6650 -0.2308
vn 0.1549 -0.7275 0.6683
vn -0.1549 -0.7275 0.6683
vn -0.0000 -0.8904 0.4551
vn -0.3090 -0.8507 0.4253
vn -0.6835 -0.7276 0.0592
vn -0.4329 -0.8904 0.1406
vn -0.5878 -0.7276 0.3539
s off
f 52/1/1 57/2/1 49/3/1
f 48/4/1 41/5/1 44/6/1
f 37/7/1 74/8/1 40/9/1
f 40/9/1 57/2/1 52/1/1
f 44/6/1 45/10/1 48/4/1
f 60/11/1 41/5/1 48/4/1
f 49/3/1 62/12/1 56/13/1
f 44/6/1 61/14/1 37/7/1
f 45/10/1 68/15/1 48/4/1
f 37/7/1 59/16/1 45/10/1
f 52/1/1 37/7/1 40/9/1
f 41/5/1 71/17/1 44/6/1
f 59/16/1 37/7/1 52/1/1
f 65/18/1 52/1/1 49/3/1
f 57/2/1 53/19/1 62/12/1
f 45/10/1 44/6/1 37/7/1
f 49/3/1 57/2/1 62/12/1
f 58/20/1 49/3/1 56/13/1
s 1
f 1/21/2 10/22/3 9/23/4
f 2/24/5 12/25/6 18/26/7
f 1/21/2 9/23/4 24/27/8
f 1/21/2 24/27/8 30/28/9
f 1/21/2 30/28/9 19/29/10
f 2/24/5 18/26/7 38/30/11
f 3/31/12 15/32/13 42/33/14
f 4/34/15 27/35/16 46/36/17
f 5/37/18 33/38/19 50/39/20
f 6/40/21 36/41/22 54/42/23
f 2/24/5 38/30/11 43/43/24
f 3/31/12 42/33/14 47/44/25
f 4/34/15 46/36/17 51/45/26
f 5/37/18 50/39/20 55/46/27
f 6/40/21 54/42/23 39/47/28
f 39/47/28 57/48/29 40/49/30
f 39/47/28 54/42/23 57/48/29
f 54/42/23 53/50/31 57/48/29
f 55/46/27 58/51/32 56/52/33
f 55/46/27 50/39/20 58/51/32
f 50/39/20 49/53/34 58/51/32
f 51/45/26 59/54/35 52/55/36
f 51/45/26 46/36/17 59/54/35
f 46/36/17 45/56/37 59/54/35
f 47/44/25 60/57/38 48/58/39
f 47/44/25 42/33/14 60/57/38
f 42/33/14 41/59/40 60/57/38
f 43/43/24 61/60/41 44/61/42
f 43/43/24 38/30/11 61/60/41
f 38/30/11 37/62/43 61/60/41
f 54/42/23 63/63/44 53/50/31
f 53/50/31 63/63/44 62/64/45
f 63/63/44 64/65/46 62/64/45
f 62/64/45 64/65/46 56/52/33
f 64/65/46 55/46/27 56/52/33
f 54/42/23 36/41/22 63/63/44
f 36/41/22 35/66/47 63/63/44
f 63/63/44 35/66/47 64/65/46
f 35/66/47 34/67/48 64/65/46
f 64/65/46 34/67/48 55/46/27
f 34/67/48 5/37/18 55/46/27
f 50/39/20 66/68/49 49/53/34
f 49/53/34 66/68/49 65/69/50
f 66/68/49 67/70/51 65/69/50
f 65/69/50 67/70/51 52/55/36
f 67/70/51 51/45/26 52/55/36
f 50/39/20 33/38/19 66/68/49
f 33/38/19 32/71/52 66/68/49
f 66/68/49 32/71/52 67/70/51
f 32/71/52 31/72/53 67/70/51
f 67/70/51 31/72/53 51/45/26
f 31/72/53 4/34/15 51/45/26
f 46/36/17 69/73/54 45/56/37
f 45/56/37 69/73/54 68/74/55
f 69/73/54 70/75/56 68/74/55
f 68/74/55 70/75/56 48/58/39
f 70/75/56 47/44/25 48/58/39
f 46/36/17 27/35/16 69/73/54
f 27/35/16 26/76/57 69/73/54
f 69/73/54 26/76/57 70/75/56
f 26/76/57 25/77/58 70/75/56
f 70/75/56 25/77/58 47/44/25
f 25/77/58 3/31/12 47/44/25
f 42/33/14 72/78/59 41/59/40
f 41/59/40 72/78/59 71/79/60
f 72/78/59 73/80/61 71/79/60
f 71/79/60 73/80/61 44/61/42
f 73/80/61 43/43/24 44/61/42
f 42/33/14 15/32/13 72/78/59
f 15/32/13 14/81/62 72/78/59
f 72/78/59 14/81/62 73/80/61
f 14/81/62 13/82/63 73/80/61
f 73/80/61 13/82/63 43/43/24
f 13/82/63 2/24/5 43/43/24
f 38/30/11 75/83/64 37/62/43
f 37/62/43 75/83/64 74/84/65
f 75/83/64 76/85/66 74/84/65
f 74/84/65 76/85/66 40/49/30
f 76/85/66 39/47/28 40/49/30
f 38/30/11 18/26/7 75/83/64
f 18/26/7 17/86/67 75/83/64
f 75/83/64 17/86/67 76/85/66
f 17/86/67 16/87/68 76/85/66
f 76/85/66 16/87/68 39/47/28
f 16/87/68 6/40/21 39/47/28
f 21/88/69 36/41/22 6/40/21
f 20/89/70 77/90/71 21/88/69
f 19/29/10 78/91/72 20/89/70
f 21/88/69 77/90/71 36/41/22
f 77/90/71 35/66/47 36/41/22
f 20/89/70 78/91/72 77/90/71
f 78/91/72 79/92/73 77/90/71
f 77/90/71 79/92/73 35/66/47
f 79/92/73 34/67/48 35/66/47
f 19/29/10 30/28/9 78/91/72
f 30/28/9 29/93/74 78/91/72
f 78/91/72 29/93/74 79/92/73
f 29/93/74 28/94/75 79/92/73
f 79/92/73 28/94/75 34/67/48
f 28/94/75 5/37/18 34/67/48
f 28/94/75 33/38/19 5/37/18
f 29/93/74 80/95/76 28/94/75
f 30/28/9 81/96/77 29/93/74
f 28/94/75 80/95/76 33/38/19
f 80/95/76 32/71/52 33/38/19
f 29/93/74 81/96/77 80/95/76
f 81/96/77 82/97/78 80/95/76
f 80/95/76 82/97/78 32/71/52
f 82/97/78 31/72/53 32/71/52
f 30/28/9 24/27/8 81/96/77
f 24/27/8 23/98/79 81/96/77
f 81/96/77 23/98/79 82/97/78
f 23/98/79 22/99/80 82/97/78
f 82/97/78 22/99/80 31/72/53
f 22/99/80 4/34/15 31/72/53
f 22/99/80 27/35/16 4/34/15
f 23/98/79 83/100/81 22/99/80
f 24/27/8 84/101/82 23/98/79
f 22/99/80 83/100/81 27/35/16
f 83/100/81 26/76/57 27/35/16
f 23/98/79 84/101/82 83/100/81
f 84/101/82 85/102/83 83/100/81
f 83/100/81 85/102/83 26/76/57
f 85/102/83 25/77/58 26/76/57
f 24/27/8 9/23/4 84/101/82
f 9/23/4 8/103/84 84/101/82
f 84/101/82 8/103/84 85/102/83
f 8/103/84 7/104/85 85/102/83
f 85/102/83 7/104/85 25/77/58
f 7/104/85 3/31/12 25/77/58
f 16/87/68 21/88/69 6/40/21
f 17/86/67 86/105/86 16/87/68
f 18/26/7 87/106/87 17/86/67
f 16/87/68 86/105/86 21/88/69
f 86/105/86 20/89/70 21/88/69
f 17/86/67 87/106/87 86/105/86
f 87/106/87 88/107/88 86/105/86
f 86/105/86 88/107/88 20/89/70
f 88/107/88 19/29/10 20/89/70
f 18/26/7 12/25/6 87/106/87
f 12/25/6 11/108/89 87/106/87
f 87/106/87 11/108/89 88/107/88
f 11/108/89 10/22/3 88/107/88
f 88/107/88 10/22/3 19/29/10
f 10/22/3 1/21/2 19/29/10
f 7/104/85 15/32/13 3/31/12
f 8/103/84 89/109/90 7/104/85
f 9/23/4 90/110/91 8/103/84
f 7/104/85 89/109/90 15/32/13
f 89/109/90 14/81/62 15/32/13
f 8/103/84 90/110/91 89/109/90
f 90/110/91 91/111/92 89/109/90
f 89/109/90 91/111/92 14/81/62
f 91/111/92 13/82/63 14/81/62
f 9/23/4 10/22/3 90/110/91
f 10/22/3 11/108/89 90/110/91
f 90/110/91 11/108/89 91/111/92
f 11/108/89 12/25/6 91/111/92
f 91/111/92 12/25/6 13/82/63
f 12/25/6 2/24/5 13/82/63
l 93 102
l 102 100
l 101 103
l 103 98
l 99 104
l 104 96
l 97 105
l 105 94
l 95 106
l 106 92
l 107 101
l 100 107
l 108 99
l 98 108
l 109 97
l 96 109
l 110 95
l 94 110
l 111 93
l 92 111
