# Blender v3.0.0 OBJ File: 'pacman_hsiu.blend'
# www.blender.org
o pacman_body_Icosphere
v 0.000000 -1.000000 0.000000
v -0.525725 -0.447220 0.723607
v -0.850649 -0.447220 -0.276388
v 0.000000 -0.447216 -0.894426
v 0.850649 -0.447220 -0.276388
v 0.525725 -0.447220 0.723607
v -0.716563 -0.657519 -0.232822
v -0.499995 -0.850654 -0.162456
v -0.238853 -0.967950 -0.077607
v -0.147618 -0.967950 0.203181
v -0.309011 -0.850654 0.425323
v -0.442856 -0.657519 0.609547
v -0.681712 -0.502302 0.531941
v -0.809012 -0.525738 0.262869
v -0.864184 -0.502302 -0.029639
v 0.295238 -0.502301 0.812729
v 0.000000 -0.525736 0.850648
v -0.295238 -0.502301 0.812729
v 0.147618 -0.967950 0.203181
v 0.309011 -0.850654 0.425323
v 0.442856 -0.657519 0.609547
v 0.000000 -0.657515 -0.753442
v 0.000000 -0.850652 -0.525730
v 0.000000 -0.967949 -0.251147
v -0.716565 -0.502302 -0.483971
v -0.499997 -0.525736 -0.688189
v -0.238853 -0.502299 -0.831051
v 0.716563 -0.657519 -0.232822
v 0.499995 -0.850654 -0.162456
v 0.238853 -0.967950 -0.077607
v 0.238853 -0.502299 -0.831051
v 0.499997 -0.525736 -0.688189
v 0.716565 -0.502302 -0.483971
v 0.864184 -0.502302 -0.029639
v 0.809012 -0.525738 0.262869
v 0.681712 -0.502302 0.531941
v -0.309013 -0.000000 0.951058
v -0.442858 -0.251151 0.860698
v 0.442858 -0.251151 0.860698
v 0.309013 0.000000 0.951058
v -1.000000 -0.000000 0.000000
v -0.955422 -0.251152 -0.155215
v -0.681715 -0.251152 0.687159
v -0.809017 0.000000 0.587786
v -0.309013 -0.000000 -0.951058
v -0.147618 -0.251149 -0.956626
v -0.864188 -0.251152 -0.436007
v -0.809017 0.000000 -0.587786
v 0.809017 -0.000000 -0.587786
v 0.864188 -0.251152 -0.436007
v 0.147618 -0.251149 -0.956626
v 0.309013 0.000000 -0.951058
v 0.809017 -0.000000 0.587786
v 0.681715 -0.251152 0.687159
v 0.955422 -0.251152 -0.155215
v 1.000000 0.000000 0.000000
v 0.587782 0.000000 0.809019
v 0.951057 -0.000000 -0.309016
v -0.000000 0.000001 -1.000000
v -0.951056 -0.000001 -0.309017
v -0.587783 -0.000002 0.809019
v 0.951056 -0.000000 0.309017
v 0.850648 -0.276398 0.447216
v 0.951055 -0.276398 0.138199
v 0.587783 -0.000000 -0.809018
v 0.688191 -0.276397 -0.670819
v 0.425324 -0.276396 -0.861803
v -0.587783 0.000000 -0.809018
v -0.425324 -0.276396 -0.861803
v -0.688191 -0.276397 -0.670819
v -0.951056 0.000000 0.309017
v -0.951055 -0.276398 0.138199
v -0.850648 -0.276398 0.447216
v 0.000000 0.000000 1.000000
v -0.162458 -0.276396 0.947213
v 0.162458 -0.276396 0.947213
v 0.587779 -0.723612 0.361803
v 0.425321 -0.894429 0.138197
v 0.688186 -0.723611 0.052789
v 0.525727 -0.723612 -0.447211
v 0.262863 -0.894429 -0.361801
v 0.262863 -0.723609 -0.638195
v -0.262864 -0.723609 -0.638195
v -0.262864 -0.894428 -0.361801
v -0.525729 -0.723610 -0.447211
v 0.162457 -0.723611 0.670817
v -0.162458 -0.723610 0.670818
v -0.000001 -0.894428 0.447211
v -0.688185 -0.723612 0.052790
v -0.425321 -0.894429 0.138199
v -0.587779 -0.723611 0.361805
vt 0.603916 0.982773
vt 0.598101 0.971744
vt 0.610559 0.972222
vt 0.580655 0.938657
vt 0.574012 0.949208
vt 0.568196 0.938179
vt 0.404575 0.975120
vt 0.398760 0.964091
vt 0.411219 0.964569
vt 0.454410 0.977033
vt 0.448595 0.966004
vt 0.461054 0.966482
vt 0.504246 0.978946
vt 0.498430 0.967917
vt 0.510889 0.968396
vt 0.574840 0.927628
vt 0.630490 0.940570
vt 0.618031 0.940092
vt 0.624675 0.929542
vt 0.431150 0.932917
vt 0.418691 0.932439
vt 0.425335 0.921888
vt 0.480985 0.934831
vt 0.468526 0.934352
vt 0.475170 0.923802
vt 0.530820 0.936744
vt 0.518361 0.936266
vt 0.525005 0.925715
vt 0.587299 0.928107
vt 0.637134 0.930020
vt 0.437794 0.922367
vt 0.487629 0.924280
vt 0.537464 0.926193
vt 0.531649 0.915164
vt 0.544107 0.915643
vt 0.519190 0.914686
vt 0.481813 0.913251
vt 0.494272 0.913730
vt 0.469355 0.912773
vt 0.431978 0.911338
vt 0.444437 0.911816
vt 0.419520 0.910860
vt 0.631319 0.918991
vt 0.643778 0.919469
vt 0.618860 0.918513
vt 0.581484 0.917078
vt 0.593942 0.917556
vt 0.569025 0.916599
vt 0.512546 0.925237
vt 0.506731 0.914208
vt 0.500087 0.924758
vt 0.505903 0.935787
vt 0.493444 0.935309
vt 0.462711 0.923323
vt 0.456896 0.912295
vt 0.450252 0.922845
vt 0.456067 0.933874
vt 0.443609 0.933396
vt 0.412876 0.921410
vt 0.407061 0.910381
vt 0.400417 0.920932
vt 0.394602 0.909903
vt 0.387958 0.920453
vt 0.406232 0.931961
vt 0.393774 0.931482
vt 0.381315 0.931004
vt 0.612216 0.929063
vt 0.606401 0.918034
vt 0.599758 0.928585
vt 0.605573 0.939614
vt 0.593114 0.939135
vt 0.562381 0.927150
vt 0.556566 0.916121
vt 0.549922 0.926672
vt 0.555738 0.937701
vt 0.543279 0.937222
vt 0.524176 0.947294
vt 0.517533 0.957845
vt 0.511718 0.946816
vt 0.505074 0.957367
vt 0.499259 0.946338
vt 0.492615 0.956888
vt 0.486800 0.945859
vt 0.474341 0.945381
vt 0.467698 0.955932
vt 0.461883 0.944903
vt 0.455239 0.955453
vt 0.449424 0.944425
vt 0.442780 0.954975
vt 0.436965 0.943946
vt 0.424506 0.943468
vt 0.417863 0.954018
vt 0.412047 0.942990
vt 0.405404 0.953540
vt 0.399589 0.942511
vt 0.392945 0.953062
vt 0.387130 0.942033
vt 0.536635 0.947773
vt 0.549094 0.948251
vt 0.561553 0.948729
vt 0.542450 0.958802
vt 0.554909 0.959280
vt 0.548265 0.969831
vt 0.567368 0.959758
vt 0.560724 0.970309
vt 0.554081 0.980860
vt 0.623847 0.951121
vt 0.617203 0.961672
vt 0.611388 0.950643
vt 0.604744 0.961193
vt 0.598929 0.950164
vt 0.592285 0.960715
vt 0.586470 0.949686
vn 0.0000 -1.0000 -0.0000
vn -0.1533 -0.9654 0.2110
vn -0.2480 -0.9654 -0.0806
vn -0.5257 -0.4472 0.7236
vn -0.4390 -0.6650 0.6042
vn -0.2857 -0.5038 0.8152
vn -0.0000 -0.9654 -0.2608
vn 0.2480 -0.9654 -0.0806
vn 0.1533 -0.9654 0.2110
vn -0.4390 -0.2431 0.8650
vn -0.8506 -0.4472 -0.2764
vn -0.8636 -0.5038 -0.0198
vn -0.9583 -0.2431 -0.1502
vn 0.0000 -0.4472 -0.8944
vn -0.2480 -0.5038 -0.8274
vn -0.1533 -0.2431 -0.9578
vn 0.8506 -0.4472 -0.2764
vn 0.7103 -0.5038 -0.4915
vn 0.8636 -0.2431 -0.4417
vn 0.5257 -0.4472 0.7236
vn 0.6870 -0.5038 0.5237
vn 0.6870 -0.2431 0.6848
vn -0.6870 -0.2431 0.6848
vn -0.8636 -0.2431 -0.4417
vn 0.1533 -0.2431 -0.9578
vn 0.9583 -0.2431 -0.1502
vn 0.4390 -0.2431 0.8650
vn 0.5842 -0.1105 0.8041
vn 0.3029 -0.1169 0.9458
vn 0.8060 -0.1169 0.5803
vn 0.9452 -0.1105 -0.3071
vn 0.9931 -0.1169 0.0043
vn 0.8010 -0.1169 -0.5872
vn -0.0000 -0.1105 -0.9939
vn 0.3109 -0.1169 -0.9432
vn -0.3109 -0.1169 -0.9432
vn -0.9452 -0.1105 -0.3071
vn -0.8010 -0.1169 -0.5872
vn -0.9931 -0.1169 0.0043
vn -0.5842 -0.1105 0.8041
vn -0.8060 -0.1169 0.5803
vn -0.3028 -0.1169 0.9458
vn 0.8553 -0.2724 0.4408
vn 0.9432 -0.1283 0.3065
vn 0.9510 -0.2724 0.1461
vn 0.8090 -0.5257 0.2629
vn 0.8636 -0.5038 -0.0198
vn 0.6835 -0.2724 -0.6772
vn 0.5829 -0.1283 -0.8023
vn 0.4329 -0.2724 -0.8593
vn 0.5000 -0.5257 -0.6882
vn 0.2480 -0.5038 -0.8274
vn -0.4329 -0.2724 -0.8593
vn -0.5829 -0.1283 -0.8023
vn -0.6835 -0.2724 -0.6772
vn -0.5000 -0.5257 -0.6882
vn -0.7103 -0.5038 -0.4915
vn -0.9510 -0.2724 0.1461
vn -0.9432 -0.1283 0.3065
vn -0.8553 -0.2724 0.4408
vn -0.8090 -0.5257 0.2629
vn -0.6870 -0.5038 0.5237
vn -0.1549 -0.2724 0.9496
vn 0.0000 -0.1283 0.9917
vn 0.1549 -0.2724 0.9496
vn 0.0000 -0.5257 0.8506
vn 0.2857 -0.5038 0.8152
vn 0.4390 -0.6650 0.6042
vn 0.3090 -0.8507 0.4253
vn 0.5878 -0.7276 0.3539
vn 0.4329 -0.8904 0.1406
vn 0.6835 -0.7276 0.0592
vn 0.5000 -0.8507 -0.1625
vn 0.7103 -0.6650 -0.2308
vn 0.5182 -0.7276 -0.4496
vn 0.2675 -0.8904 -0.3682
vn 0.2675 -0.7275 -0.6317
vn -0.0000 -0.8507 -0.5257
vn -0.0000 -0.6650 -0.7469
vn -0.2675 -0.7275 -0.6317
vn -0.2675 -0.8904 -0.3682
vn -0.5182 -0.7275 -0.4496
vn -0.5000 -0.8507 -0.1625
vn -0.7103 -0.6650 -0.2308
vn 0.1549 -0.7275 0.6683
vn -0.1549 -0.7275 0.6683
vn -0.0000 -0.8904 0.4551
vn -0.3090 -0.8507 0.4253
vn -0.6835 -0.7276 0.0592
vn -0.4329 -0.8904 0.1406
vn -0.5878 -0.7276 0.3539
s 1
f 1/1/1 10/2/2 9/3/3
f 2/4/4 12/5/5 18/6/6
f 1/7/1 9/8/3 24/9/7
f 1/10/1 24/11/7 30/12/8
f 1/13/1 30/14/8 19/15/9
f 2/4/4 18/6/6 38/16/10
f 3/17/11 15/18/12 42/19/13
f 4/20/14 27/21/15 46/22/16
f 5/23/17 33/24/18 50/25/19
f 6/26/20 36/27/21 54/28/22
f 2/4/4 38/16/10 43/29/23
f 3/17/11 42/19/13 47/30/24
f 4/20/14 46/22/16 51/31/25
f 5/23/17 50/25/19 55/32/26
f 6/26/20 54/28/22 39/33/27
f 39/33/27 57/34/28 40/35/29
f 39/33/27 54/28/22 57/34/28
f 54/28/22 53/36/30 57/34/28
f 55/32/26 58/37/31 56/38/32
f 55/32/26 50/25/19 58/37/31
f 50/25/19 49/39/33 58/37/31
f 51/31/25 59/40/34 52/41/35
f 51/31/25 46/22/16 59/40/34
f 46/22/16 45/42/36 59/40/34
f 47/30/24 60/43/37 48/44/38
f 47/30/24 42/19/13 60/43/37
f 42/19/13 41/45/39 60/43/37
f 43/29/23 61/46/40 44/47/41
f 43/29/23 38/16/10 61/46/40
f 38/16/10 37/48/42 61/46/40
f 54/28/22 63/49/43 53/36/30
f 53/36/30 63/49/43 62/50/44
f 63/49/43 64/51/45 62/50/44
f 62/50/44 64/51/45 56/38/32
f 64/51/45 55/32/26 56/38/32
f 54/28/22 36/27/21 63/49/43
f 36/27/21 35/52/46 63/49/43
f 63/49/43 35/52/46 64/51/45
f 35/52/46 34/53/47 64/51/45
f 64/51/45 34/53/47 55/32/26
f 34/53/47 5/23/17 55/32/26
f 50/25/19 66/54/48 49/39/33
f 49/39/33 66/54/48 65/55/49
f 66/54/48 67/56/50 65/55/49
f 65/55/49 67/56/50 52/41/35
f 67/56/50 51/31/25 52/41/35
f 50/25/19 33/24/18 66/54/48
f 33/24/18 32/57/51 66/54/48
f 66/54/48 32/57/51 67/56/50
f 32/57/51 31/58/52 67/56/50
f 67/56/50 31/58/52 51/31/25
f 31/58/52 4/20/14 51/31/25
f 46/22/16 69/59/53 45/42/36
f 45/42/36 69/59/53 68/60/54
f 69/59/53 70/61/55 68/60/54
f 68/60/54 70/61/55 48/62/38
f 70/61/55 47/63/24 48/62/38
f 46/22/16 27/21/15 69/59/53
f 27/21/15 26/64/56 69/59/53
f 69/59/53 26/64/56 70/61/55
f 26/64/56 25/65/57 70/61/55
f 70/61/55 25/65/57 47/63/24
f 25/65/57 3/66/11 47/63/24
f 42/19/13 72/67/58 41/45/39
f 41/45/39 72/67/58 71/68/59
f 72/67/58 73/69/60 71/68/59
f 71/68/59 73/69/60 44/47/41
f 73/69/60 43/29/23 44/47/41
f 42/19/13 15/18/12 72/67/58
f 15/18/12 14/70/61 72/67/58
f 72/67/58 14/70/61 73/69/60
f 14/70/61 13/71/62 73/69/60
f 73/69/60 13/71/62 43/29/23
f 13/71/62 2/4/4 43/29/23
f 38/16/10 75/72/63 37/48/42
f 37/48/42 75/72/63 74/73/64
f 75/72/63 76/74/65 74/73/64
f 74/73/64 76/74/65 40/35/29
f 76/74/65 39/33/27 40/35/29
f 38/16/10 18/6/6 75/72/63
f 18/6/6 17/75/66 75/72/63
f 75/72/63 17/75/66 76/74/65
f 17/75/66 16/76/67 76/74/65
f 76/74/65 16/76/67 39/33/27
f 16/76/67 6/26/20 39/33/27
f 21/77/68 36/27/21 6/26/20
f 20/78/69 77/79/70 21/77/68
f 19/15/9 78/80/71 20/78/69
f 21/77/68 77/79/70 36/27/21
f 77/79/70 35/52/46 36/27/21
f 20/78/69 78/80/71 77/79/70
f 78/80/71 79/81/72 77/79/70
f 77/79/70 79/81/72 35/52/46
f 79/81/72 34/53/47 35/52/46
f 19/15/9 30/14/8 78/80/71
f 30/14/8 29/82/73 78/80/71
f 78/80/71 29/82/73 79/81/72
f 29/82/73 28/83/74 79/81/72
f 79/81/72 28/83/74 34/53/47
f 28/83/74 5/23/17 34/53/47
f 28/84/74 33/24/18 5/23/17
f 29/85/73 80/86/75 28/84/74
f 30/12/8 81/87/76 29/85/73
f 28/84/74 80/86/75 33/24/18
f 80/86/75 32/57/51 33/24/18
f 29/85/73 81/87/76 80/86/75
f 81/87/76 82/88/77 80/86/75
f 80/86/75 82/88/77 32/57/51
f 82/88/77 31/58/52 32/57/51
f 30/12/8 24/11/7 81/87/76
f 24/11/7 23/89/78 81/87/76
f 81/87/76 23/89/78 82/88/77
f 23/89/78 22/90/79 82/88/77
f 82/88/77 22/90/79 31/58/52
f 22/90/79 4/20/14 31/58/52
f 22/91/79 27/21/15 4/20/14
f 23/92/78 83/93/80 22/91/79
f 24/9/7 84/94/81 23/92/78
f 22/91/79 83/93/80 27/21/15
f 83/93/80 26/64/56 27/21/15
f 23/92/78 84/94/81 83/93/80
f 84/94/81 85/95/82 83/93/80
f 83/93/80 85/95/82 26/64/56
f 85/95/82 25/65/57 26/64/56
f 24/9/7 9/8/3 84/94/81
f 9/8/3 8/96/83 84/94/81
f 84/94/81 8/96/83 85/95/82
f 8/96/83 7/97/84 85/95/82
f 85/95/82 7/97/84 25/65/57
f 7/97/84 3/66/11 25/65/57
f 16/76/67 21/98/68 6/26/20
f 17/75/66 86/99/85 16/76/67
f 18/6/6 87/100/86 17/75/66
f 16/76/67 86/99/85 21/98/68
f 86/99/85 20/101/69 21/98/68
f 17/75/66 87/100/86 86/99/85
f 87/100/86 88/102/87 86/99/85
f 86/99/85 88/102/87 20/101/69
f 88/102/87 19/103/9 20/101/69
f 18/6/6 12/5/5 87/100/86
f 12/5/5 11/104/88 87/100/86
f 87/100/86 11/104/88 88/102/87
f 11/104/88 10/105/2 88/102/87
f 88/102/87 10/105/2 19/103/9
f 10/105/2 1/106/1 19/103/9
f 7/107/84 15/18/12 3/17/11
f 8/108/83 89/109/89 7/107/84
f 9/3/3 90/110/90 8/108/83
f 7/107/84 89/109/89 15/18/12
f 89/109/89 14/70/61 15/18/12
f 8/108/83 90/110/90 89/109/89
f 90/110/90 91/111/91 89/109/89
f 89/109/89 91/111/91 14/70/61
f 91/111/91 13/71/62 14/70/61
f 9/3/3 10/2/2 90/110/90
f 10/2/2 11/112/88 90/110/90
f 90/110/90 11/112/88 91/111/91
f 11/112/88 12/113/5 91/111/91
f 91/111/91 12/113/5 13/71/62
f 12/113/5 2/4/4 13/71/62
